<?xml version="1.0"?>
<svg xmlns="http://www.w3.org/2000/svg" viewBox="0 0 50 50" id="sitecore-logo">
    <path style="line-height:normal;text-indent:0;text-align:start;text-decoration-line:none;text-decoration-style:solid;text-decoration-color:#000;text-transform:none;block-progression:tb;isolation:auto;mix-blend-mode:normal" d="M 25 2 C 12.309534 2 2 12.309534 2 25 C 2 37.691422 12.309588 48 25 48 C 37.690466 48 48 37.690466 48 25 C 48 12.309534 37.690466 2 25 2 z M 25 4 C 36.609534 4 46 13.390466 46 25 C 46 36.609534 36.609534 46 25 46 C 13.390412 46 4 36.610578 4 25 C 4 13.390466 13.390466 4 25 4 z M 25 8 C 15.582006 8 8 15.582006 8 25 C 8 28.148245 8.7998413 31.090503 10.222656 33.623047 L 10.21875 33.625 C 10.21875 33.625 10.23002 33.638122 10.230469 33.638672 C 13.043116 38.632749 18.327324 42 25 42 C 35.060975 42 42 34.366891 42 25 C 42 15.582006 34.417994 8 25 8 z M 25 10 C 28.513299 10 31.717099 11.187991 34.259766 13.173828 L 28.75 17.736328 L 29.105469 18.447266 C 29.105469 18.447266 31.896587 23.762376 27.232422 29.359375 C 25.054263 31.973165 21.173536 32.491965 17.693359 32.251953 C 14.213183 32.011941 11.316406 31.050781 11.316406 31.050781 L 11.240234 31.277344 C 10.439203 29.374403 10 27.255609 10 25 C 10 16.649994 16.649994 10 25 10 z M 35.769531 14.521484 C 37.501493 16.302063 38.780924 18.518625 39.455078 21 L 34.007812 21 L 34 21.992188 C 34 21.992188 33.870581 29.511429 28.412109 33.169922 C 26.222509 34.637237 22.798981 34.743648 19.582031 34.292969 C 22.876763 34.24209 26.434306 33.440552 28.767578 30.640625 C 33.204425 25.316408 31.797628 20.032706 31.175781 18.324219 L 35.769531 14.521484 z M 35.927734 23 L 39.855469 23 C 39.941147 23.655321 40 24.319411 40 25 C 40 27.366799 39.513783 29.581223 38.634766 31.554688 L 35.664062 29.574219 L 35.130859 30.503906 C 35.130859 30.503906 31.416667 37 24 37 C 21.44364 37 19.337454 36.578153 17.623047 35.994141 C 21.464973 36.756133 26.144143 37.09595 29.525391 34.830078 C 34.849146 31.261878 35.759628 25.154102 35.927734 23 z M 36.263672 32.376953 L 37.701172 33.335938 C 35.177271 37.375944 30.714483 40 25 40 C 21.900635 40 19.178696 39.21521 16.923828 37.865234 C 18.849055 38.526679 21.196558 39 24 39 C 30.969859 39 34.95517 34.237141 36.263672 32.376953 z" font-weight="400" font-family="sans-serif" white-space="normal" overflow="visible"/>
</svg>
